<svg width="410" height="410" viewBox="0 0 410 410" fill="none" xmlns="http://www.w3.org/2000/svg">
<g filter="url(#filter0_d_55_16)">
<rect x="22" y="26" width="350" height="350" rx="30" fill="white"/>
<rect x="22" y="26" width="350" height="350" rx="30" fill="url(#paint0_radial_55_16)" fill-opacity="0.5"/>
</g>
<path d="M74.82 86.74H66.09L64.59 91H61.02L68.49 70.12H72.45L79.92 91H76.32L74.82 86.74ZM73.86 83.95L70.47 74.26L67.05 83.95H73.86ZM86.888 68.8V91H83.468V68.8H86.888ZM106.828 82.33C106.828 82.95 106.788 83.51 106.708 84.01H94.0781C94.1781 85.33 94.6681 86.39 95.5481 87.19C96.4281 87.99 97.5081 88.39 98.7881 88.39C100.628 88.39 101.928 87.62 102.688 86.08H106.378C105.878 87.6 104.968 88.85 103.648 89.83C102.348 90.79 100.728 91.27 98.7881 91.27C97.2081 91.27 95.7881 90.92 94.5281 90.22C93.2881 89.5 92.3081 88.5 91.5881 87.22C90.8881 85.92 90.5381 84.42 90.5381 82.72C90.5381 81.02 90.8781 79.53 91.5581 78.25C92.2581 76.95 93.2281 75.95 94.4681 75.25C95.7281 74.55 97.1681 74.2 98.7881 74.2C100.348 74.2 101.738 74.54 102.958 75.22C104.178 75.9 105.128 76.86 105.808 78.1C106.488 79.32 106.828 80.73 106.828 82.33ZM103.258 81.25C103.238 79.99 102.788 78.98 101.908 78.22C101.028 77.46 99.9381 77.08 98.6381 77.08C97.4581 77.08 96.4481 77.46 95.6081 78.22C94.7681 78.96 94.2681 79.97 94.1081 81.25H103.258ZM113.914 76.87C114.414 76.03 115.074 75.38 115.894 74.92C116.734 74.44 117.724 74.2 118.864 74.2V77.74H117.994C116.654 77.74 115.634 78.08 114.934 78.76C114.254 79.44 113.914 80.62 113.914 82.3V91H110.494V74.47H113.914V76.87ZM126.297 77.26V86.41C126.297 87.03 126.437 87.48 126.717 87.76C127.017 88.02 127.517 88.15 128.217 88.15H130.317V91H127.617C126.077 91 124.897 90.64 124.077 89.92C123.257 89.2 122.847 88.03 122.847 86.41V77.26H120.897V74.47H122.847V70.36H126.297V74.47H130.317V77.26H126.297ZM139.77 91.27C138.47 91.27 137.3 91.04 136.26 90.58C135.24 90.1 134.43 89.46 133.83 88.66C133.23 87.84 132.91 86.93 132.87 85.93H136.41C136.47 86.63 136.8 87.22 137.4 87.7C138.02 88.16 138.79 88.39 139.71 88.39C140.67 88.39 141.41 88.21 141.93 87.85C142.47 87.47 142.74 86.99 142.74 86.41C142.74 85.79 142.44 85.33 141.84 85.03C141.26 84.73 140.33 84.4 139.05 84.04C137.81 83.7 136.8 83.37 136.02 83.05C135.24 82.73 134.56 82.24 133.98 81.58C133.42 80.92 133.14 80.05 133.14 78.97C133.14 78.09 133.4 77.29 133.92 76.57C134.44 75.83 135.18 75.25 136.14 74.83C137.12 74.41 138.24 74.2 139.5 74.2C141.38 74.2 142.89 74.68 144.03 75.64C145.19 76.58 145.81 77.87 145.89 79.51H142.47C142.41 78.77 142.11 78.18 141.57 77.74C141.03 77.3 140.3 77.08 139.38 77.08C138.48 77.08 137.79 77.25 137.31 77.59C136.83 77.93 136.59 78.38 136.59 78.94C136.59 79.38 136.75 79.75 137.07 80.05C137.39 80.35 137.78 80.59 138.24 80.77C138.7 80.93 139.38 81.14 140.28 81.4C141.48 81.72 142.46 82.05 143.22 82.39C144 82.71 144.67 83.19 145.23 83.83C145.79 84.47 146.08 85.32 146.1 86.38C146.1 87.32 145.84 88.16 145.32 88.9C144.8 89.64 144.06 90.22 143.1 90.64C142.16 91.06 141.05 91.27 139.77 91.27Z" fill="#6E7587"/>
<path fill-rule="evenodd" clip-rule="evenodd" d="M190 240C190 198.578 223.578 165 265 165C306.423 165 340 198.578 340 240C340 281.423 306.423 315 265 315C223.578 315 190 281.423 190 240ZM272.5 198.75C272.5 196.761 271.71 194.853 270.303 193.447C268.897 192.04 266.989 191.25 265 191.25C263.011 191.25 261.103 192.04 259.697 193.447C258.29 194.853 257.5 196.761 257.5 198.75V251.25C257.5 253.239 258.29 255.147 259.697 256.553C261.103 257.96 263.011 258.75 265 258.75C266.989 258.75 268.897 257.96 270.303 256.553C271.71 255.147 272.5 253.239 272.5 251.25V198.75ZM265 273.75C266.989 273.75 268.897 274.54 270.303 275.947C271.71 277.353 272.5 279.261 272.5 281.25C272.5 283.239 271.71 285.147 270.303 286.553C268.897 287.96 266.989 288.75 265 288.75C263.011 288.75 261.103 287.96 259.697 286.553C258.29 285.147 257.5 283.239 257.5 281.25C257.5 279.261 258.29 277.353 259.697 275.947C261.103 274.54 263.011 273.75 265 273.75Z" fill="#C5C5C5"/>
<defs>
<filter id="filter0_d_55_16" x="0" y="0" width="410" height="410" filterUnits="userSpaceOnUse" color-interpolation-filters="sRGB">
<feFlood flood-opacity="0" result="BackgroundImageFix"/>
<feColorMatrix in="SourceAlpha" type="matrix" values="0 0 0 0 0 0 0 0 0 0 0 0 0 0 0 0 0 0 127 0" result="hardAlpha"/>
<feOffset dx="8" dy="4"/>
<feGaussianBlur stdDeviation="15"/>
<feComposite in2="hardAlpha" operator="out"/>
<feColorMatrix type="matrix" values="0 0 0 0 0 0 0 0 0 0 0 0 0 0 0 0 0 0 0.15 0"/>
<feBlend mode="normal" in2="BackgroundImageFix" result="effect1_dropShadow_55_16"/>
<feBlend mode="normal" in="SourceGraphic" in2="effect1_dropShadow_55_16" result="shape"/>
</filter>
<radialGradient id="paint0_radial_55_16" cx="0" cy="0" r="1" gradientUnits="userSpaceOnUse" gradientTransform="translate(61.5 67.5) rotate(48.2705) scale(272.68)">
<stop stop-color="white"/>
<stop offset="1" stop-color="white" stop-opacity="0"/>
</radialGradient>
</defs>
</svg>
