<svg width="410" height="410" viewBox="0 0 410 410" fill="none" xmlns="http://www.w3.org/2000/svg">
<g filter="url(#filter0_d_55_18)">
<rect x="22" y="26" width="350" height="350" rx="30" fill="white"/>
<rect x="22" y="26" width="350" height="350" rx="30" fill="url(#paint0_radial_55_18)" fill-opacity="0.5"/>
</g>
<path d="M52.12 85.21C50.72 85.21 49.46 84.97 48.34 84.49C47.22 83.99 46.34 83.29 45.7 82.39C45.06 81.49 44.74 80.44 44.74 79.24H48.4C48.48 80.14 48.83 80.88 49.45 81.46C50.09 82.04 50.98 82.33 52.12 82.33C53.3 82.33 54.22 82.05 54.88 81.49C55.54 80.91 55.87 80.17 55.87 79.27C55.87 78.57 55.66 78 55.24 77.56C54.84 77.12 54.33 76.78 53.71 76.54C53.11 76.3 52.27 76.04 51.19 75.76C49.83 75.4 48.72 75.04 47.86 74.68C47.02 74.3 46.3 73.72 45.7 72.94C45.1 72.16 44.8 71.12 44.8 69.82C44.8 68.62 45.1 67.57 45.7 66.67C46.3 65.77 47.14 65.08 48.22 64.6C49.3 64.12 50.55 63.88 51.97 63.88C53.99 63.88 55.64 64.39 56.92 65.41C58.22 66.41 58.94 67.79 59.08 69.55H55.3C55.24 68.79 54.88 68.14 54.22 67.6C53.56 67.06 52.69 66.79 51.61 66.79C50.63 66.79 49.83 67.04 49.21 67.54C48.59 68.04 48.28 68.76 48.28 69.7C48.28 70.34 48.47 70.87 48.85 71.29C49.25 71.69 49.75 72.01 50.35 72.25C50.95 72.49 51.77 72.75 52.81 73.03C54.19 73.41 55.31 73.79 56.17 74.17C57.05 74.55 57.79 75.14 58.39 75.94C59.01 76.72 59.32 77.77 59.32 79.09C59.32 80.15 59.03 81.15 58.45 82.09C57.89 83.03 57.06 83.79 55.96 84.37C54.88 84.93 53.6 85.21 52.12 85.21ZM78.5355 68.47L68.3955 92.77H64.8555L68.2155 84.73L61.7055 68.47H65.5155L70.1655 81.07L74.9955 68.47H78.5355ZM87.4164 85.27C86.1164 85.27 84.9464 85.04 83.9064 84.58C82.8864 84.1 82.0764 83.46 81.4764 82.66C80.8764 81.84 80.5564 80.93 80.5164 79.93H84.0564C84.1164 80.63 84.4464 81.22 85.0464 81.7C85.6664 82.16 86.4364 82.39 87.3564 82.39C88.3164 82.39 89.0564 82.21 89.5764 81.85C90.1164 81.47 90.3864 80.99 90.3864 80.41C90.3864 79.79 90.0864 79.33 89.4864 79.03C88.9064 78.73 87.9764 78.4 86.6964 78.04C85.4564 77.7 84.4464 77.37 83.6664 77.05C82.8864 76.73 82.2064 76.24 81.6264 75.58C81.0664 74.92 80.7864 74.05 80.7864 72.97C80.7864 72.09 81.0464 71.29 81.5664 70.57C82.0864 69.83 82.8264 69.25 83.7864 68.83C84.7664 68.41 85.8864 68.2 87.1464 68.2C89.0264 68.2 90.5364 68.68 91.6764 69.64C92.8364 70.58 93.4564 71.87 93.5364 73.51H90.1164C90.0564 72.77 89.7564 72.18 89.2164 71.74C88.6764 71.3 87.9464 71.08 87.0264 71.08C86.1264 71.08 85.4364 71.25 84.9564 71.59C84.4764 71.93 84.2364 72.38 84.2364 72.94C84.2364 73.38 84.3964 73.75 84.7164 74.05C85.0364 74.35 85.4264 74.59 85.8864 74.77C86.3464 74.93 87.0264 75.14 87.9264 75.4C89.1264 75.72 90.1064 76.05 90.8664 76.39C91.6464 76.71 92.3164 77.19 92.8764 77.83C93.4364 78.47 93.7264 79.32 93.7464 80.38C93.7464 81.32 93.4864 82.16 92.9664 82.9C92.4464 83.64 91.7064 84.22 90.7464 84.64C89.8064 85.06 88.6964 85.27 87.4164 85.27ZM101.732 71.26V80.41C101.732 81.03 101.872 81.48 102.152 81.76C102.452 82.02 102.952 82.15 103.652 82.15H105.752V85H103.052C101.512 85 100.332 84.64 99.5118 83.92C98.6918 83.2 98.2818 82.03 98.2818 80.41V71.26H96.3318V68.47H98.2818V64.36H101.732V68.47H105.752V71.26H101.732ZM124.354 76.33C124.354 76.95 124.314 77.51 124.234 78.01H111.604C111.704 79.33 112.194 80.39 113.074 81.19C113.954 81.99 115.034 82.39 116.314 82.39C118.154 82.39 119.454 81.62 120.214 80.08H123.904C123.404 81.6 122.494 82.85 121.174 83.83C119.874 84.79 118.254 85.27 116.314 85.27C114.734 85.27 113.314 84.92 112.054 84.22C110.814 83.5 109.834 82.5 109.114 81.22C108.414 79.92 108.064 78.42 108.064 76.72C108.064 75.02 108.404 73.53 109.084 72.25C109.784 70.95 110.754 69.95 111.994 69.25C113.254 68.55 114.694 68.2 116.314 68.2C117.874 68.2 119.264 68.54 120.484 69.22C121.704 69.9 122.654 70.86 123.334 72.1C124.014 73.32 124.354 74.73 124.354 76.33ZM120.784 75.25C120.764 73.99 120.314 72.98 119.434 72.22C118.554 71.46 117.464 71.08 116.164 71.08C114.984 71.08 113.974 71.46 113.134 72.22C112.294 72.96 111.794 73.97 111.634 75.25H120.784ZM148.03 68.2C149.33 68.2 150.49 68.47 151.51 69.01C152.55 69.55 153.36 70.35 153.94 71.41C154.54 72.47 154.84 73.75 154.84 75.25V85H151.45V75.76C151.45 74.28 151.08 73.15 150.34 72.37C149.6 71.57 148.59 71.17 147.31 71.17C146.03 71.17 145.01 71.57 144.25 72.37C143.51 73.15 143.14 74.28 143.14 75.76V85H139.75V75.76C139.75 74.28 139.38 73.15 138.64 72.37C137.9 71.57 136.89 71.17 135.61 71.17C134.33 71.17 133.31 71.57 132.55 72.37C131.81 73.15 131.44 74.28 131.44 75.76V85H128.02V68.47H131.44V70.36C132 69.68 132.71 69.15 133.57 68.77C134.43 68.39 135.35 68.2 136.33 68.2C137.65 68.2 138.83 68.48 139.87 69.04C140.91 69.6 141.71 70.41 142.27 71.47C142.77 70.47 143.55 69.68 144.61 69.1C145.67 68.5 146.81 68.2 148.03 68.2ZM176.134 68.2C177.394 68.2 178.514 68.47 179.494 69.01C180.494 69.55 181.274 70.35 181.834 71.41C182.414 72.47 182.704 73.75 182.704 75.25V85H179.314V75.76C179.314 74.28 178.944 73.15 178.204 72.37C177.464 71.57 176.454 71.17 175.174 71.17C173.894 71.17 172.874 71.57 172.114 72.37C171.374 73.15 171.004 74.28 171.004 75.76V85H167.584V62.8H171.004V70.39C171.584 69.69 172.314 69.15 173.194 68.77C174.094 68.39 175.074 68.2 176.134 68.2ZM202.517 76.33C202.517 76.95 202.477 77.51 202.397 78.01H189.767C189.867 79.33 190.357 80.39 191.237 81.19C192.117 81.99 193.197 82.39 194.477 82.39C196.317 82.39 197.617 81.62 198.377 80.08H202.067C201.567 81.6 200.657 82.85 199.337 83.83C198.037 84.79 196.417 85.27 194.477 85.27C192.897 85.27 191.477 84.92 190.217 84.22C188.977 83.5 187.997 82.5 187.277 81.22C186.577 79.92 186.227 78.42 186.227 76.72C186.227 75.02 186.567 73.53 187.247 72.25C187.947 70.95 188.917 69.95 190.157 69.25C191.417 68.55 192.857 68.2 194.477 68.2C196.037 68.2 197.427 68.54 198.647 69.22C199.867 69.9 200.817 70.86 201.497 72.1C202.177 73.32 202.517 74.73 202.517 76.33ZM198.947 75.25C198.927 73.99 198.477 72.98 197.597 72.22C196.717 71.46 195.627 71.08 194.327 71.08C193.147 71.08 192.137 71.46 191.297 72.22C190.457 72.96 189.957 73.97 189.797 75.25H198.947ZM205.042 76.66C205.042 75 205.382 73.53 206.062 72.25C206.762 70.97 207.702 69.98 208.882 69.28C210.082 68.56 211.402 68.2 212.842 68.2C214.142 68.2 215.272 68.46 216.232 68.98C217.212 69.48 217.992 70.11 218.572 70.87V68.47H222.022V85H218.572V82.54C217.992 83.32 217.202 83.97 216.202 84.49C215.202 85.01 214.062 85.27 212.782 85.27C211.362 85.27 210.062 84.91 208.882 84.19C207.702 83.45 206.762 82.43 206.062 81.13C205.382 79.81 205.042 78.32 205.042 76.66ZM218.572 76.72C218.572 75.58 218.332 74.59 217.852 73.75C217.392 72.91 216.782 72.27 216.022 71.83C215.262 71.39 214.442 71.17 213.562 71.17C212.682 71.17 211.862 71.39 211.102 71.83C210.342 72.25 209.722 72.88 209.242 73.72C208.782 74.54 208.552 75.52 208.552 76.66C208.552 77.8 208.782 78.8 209.242 79.66C209.722 80.52 210.342 81.18 211.102 81.64C211.882 82.08 212.702 82.3 213.562 82.3C214.442 82.3 215.262 82.08 216.022 81.64C216.782 81.2 217.392 80.56 217.852 79.72C218.332 78.86 218.572 77.86 218.572 76.72ZM230.234 62.8V85H226.814V62.8H230.234ZM239.015 71.26V80.41C239.015 81.03 239.155 81.48 239.435 81.76C239.735 82.02 240.235 82.15 240.935 82.15H243.035V85H240.335C238.795 85 237.615 84.64 236.795 83.92C235.975 83.2 235.565 82.03 235.565 80.41V71.26H233.615V68.47H235.565V64.36H239.015V68.47H243.035V71.26H239.015ZM255.037 68.2C256.297 68.2 257.417 68.47 258.397 69.01C259.397 69.55 260.177 70.35 260.737 71.41C261.317 72.47 261.607 73.75 261.607 75.25V85H258.217V75.76C258.217 74.28 257.847 73.15 257.107 72.37C256.367 71.57 255.357 71.17 254.077 71.17C252.797 71.17 251.777 71.57 251.017 72.37C250.277 73.15 249.907 74.28 249.907 75.76V85H246.487V62.8H249.907V70.39C250.487 69.69 251.217 69.15 252.097 68.77C252.997 68.39 253.977 68.2 255.037 68.2Z" fill="#6E7587"/>
<path fill-rule="evenodd" clip-rule="evenodd" d="M206.5 141.071C206.5 136.809 208.193 132.721 211.207 129.707C214.221 126.693 218.309 125 222.571 125H265.429C269.691 125 273.779 126.693 276.793 129.707C279.807 132.721 281.5 136.809 281.5 141.071V151.786C281.5 156.048 279.807 160.136 276.793 163.15C273.779 166.164 269.691 167.857 265.429 167.857H222.571C218.309 167.857 214.221 166.164 211.207 163.15C208.193 160.136 206.5 156.048 206.5 151.786V141.071ZM222.571 135.714C221.151 135.714 219.788 136.279 218.783 137.283C217.779 138.288 217.214 139.651 217.214 141.071V151.786C217.214 153.207 217.779 154.569 218.783 155.574C219.788 156.578 221.151 157.143 222.571 157.143H265.429C266.849 157.143 268.212 156.578 269.217 155.574C270.221 154.569 270.786 153.207 270.786 151.786V141.071C270.786 139.651 270.221 138.288 269.217 137.283C268.212 136.279 266.849 135.714 265.429 135.714H222.571Z" fill="#D4D4D4"/>
<path fill-rule="evenodd" clip-rule="evenodd" d="M211.857 141H185.071C180.809 141 176.721 142.693 173.707 145.707C170.693 148.721 169 152.809 169 157.071V323.143C169 327.405 170.693 331.493 173.707 334.507C176.721 337.521 180.809 339.214 185.071 339.214H302.929C307.191 339.214 311.279 337.521 314.293 334.507C317.307 331.493 319 327.405 319 323.143V157.071C319 152.809 317.307 148.721 314.293 145.707C311.279 142.693 307.191 141 302.929 141H276.143V151.714C276.143 154.556 275.014 157.281 273.005 159.29C270.995 161.3 268.27 162.429 265.429 162.429H222.571C219.73 162.429 217.005 161.3 214.995 159.29C212.986 157.281 211.857 154.556 211.857 151.714V141ZM195.786 216C195.786 214.579 196.35 213.217 197.355 212.212C198.359 211.207 199.722 210.643 201.143 210.643H238.643C240.064 210.643 241.426 211.207 242.431 212.212C243.436 213.217 244 214.579 244 216C244 217.421 243.436 218.783 242.431 219.788C241.426 220.793 240.064 221.357 238.643 221.357H201.143C199.722 221.357 198.359 220.793 197.355 219.788C196.35 218.783 195.786 217.421 195.786 216ZM201.143 183.857C199.722 183.857 198.359 184.422 197.355 185.426C196.35 186.431 195.786 187.793 195.786 189.214C195.786 190.635 196.35 191.998 197.355 193.002C198.359 194.007 199.722 194.571 201.143 194.571H284.179C285.599 194.571 286.962 194.007 287.967 193.002C288.971 191.998 289.536 190.635 289.536 189.214C289.536 187.793 288.971 186.431 287.967 185.426C286.962 184.422 285.599 183.857 284.179 183.857H201.143ZM206.5 258.857V269.571H217.214V258.857H206.5ZM201.143 248.143C199.722 248.143 198.359 248.707 197.355 249.712C196.35 250.717 195.786 252.079 195.786 253.5V274.929C195.786 276.349 196.35 277.712 197.355 278.717C198.359 279.721 199.722 280.286 201.143 280.286H222.571C223.992 280.286 225.355 279.721 226.36 278.717C227.364 277.712 227.929 276.349 227.929 274.929V253.5C227.929 252.079 227.364 250.717 226.36 249.712C225.355 248.707 223.992 248.143 222.571 248.143H201.143ZM281.5 258.857C281.5 263.12 279.807 267.207 276.793 270.221C273.779 273.235 269.691 274.929 265.429 274.929C261.166 274.929 257.078 273.235 254.064 270.221C251.05 267.207 249.357 263.12 249.357 258.857C249.357 254.595 251.05 250.507 254.064 247.493C257.078 244.479 261.166 242.786 265.429 242.786C269.691 242.786 273.779 244.479 276.793 247.493C279.807 250.507 281.5 254.595 281.5 258.857ZM265.429 281.989C254.698 281.989 233.286 287.7 233.286 299.036V312.429H297.571V299.036C297.571 287.7 276.159 281.989 265.429 281.989Z" fill="#D4D4D4"/>
<defs>
<filter id="filter0_d_55_18" x="0" y="0" width="410" height="410" filterUnits="userSpaceOnUse" color-interpolation-filters="sRGB">
<feFlood flood-opacity="0" result="BackgroundImageFix"/>
<feColorMatrix in="SourceAlpha" type="matrix" values="0 0 0 0 0 0 0 0 0 0 0 0 0 0 0 0 0 0 127 0" result="hardAlpha"/>
<feOffset dx="8" dy="4"/>
<feGaussianBlur stdDeviation="15"/>
<feComposite in2="hardAlpha" operator="out"/>
<feColorMatrix type="matrix" values="0 0 0 0 0 0 0 0 0 0 0 0 0 0 0 0 0 0 0.15 0"/>
<feBlend mode="normal" in2="BackgroundImageFix" result="effect1_dropShadow_55_18"/>
<feBlend mode="normal" in="SourceGraphic" in2="effect1_dropShadow_55_18" result="shape"/>
</filter>
<radialGradient id="paint0_radial_55_18" cx="0" cy="0" r="1" gradientUnits="userSpaceOnUse" gradientTransform="translate(61.5 67.5) rotate(48.2705) scale(272.68)">
<stop stop-color="white"/>
<stop offset="1" stop-color="white" stop-opacity="0"/>
</radialGradient>
</defs>
</svg>
