<svg width="422" height="422" viewBox="0 0 422 422" fill="none" xmlns="http://www.w3.org/2000/svg">
<g filter="url(#filter0_d_54_16)">
<rect x="28" y="32" width="350" height="350" rx="30" fill="white"/>
<rect x="28" y="32" width="350" height="350" rx="30" fill="url(#paint0_radial_54_16)" fill-opacity="0.5"/>
</g>
<path d="M79.08 97L74.28 88.66H71.67V97H68.25V76.15H75.45C77.05 76.15 78.4 76.43 79.5 76.99C80.62 77.55 81.45 78.3 81.99 79.24C82.55 80.18 82.83 81.23 82.83 82.39C82.83 83.75 82.43 84.99 81.63 86.11C80.85 87.21 79.64 87.96 78 88.36L83.16 97H79.08ZM71.67 85.93H75.45C76.73 85.93 77.69 85.61 78.33 84.97C78.99 84.33 79.32 83.47 79.32 82.39C79.32 81.31 79 80.47 78.36 79.87C77.72 79.25 76.75 78.94 75.45 78.94H71.67V85.93ZM102.655 88.33C102.655 88.95 102.615 89.51 102.535 90.01H89.9051C90.0051 91.33 90.4951 92.39 91.3751 93.19C92.2551 93.99 93.3351 94.39 94.6151 94.39C96.4551 94.39 97.7551 93.62 98.5151 92.08H102.205C101.705 93.6 100.795 94.85 99.4751 95.83C98.1751 96.79 96.5551 97.27 94.6151 97.27C93.0351 97.27 91.6151 96.92 90.3551 96.22C89.1151 95.5 88.1351 94.5 87.4151 93.22C86.7151 91.92 86.3651 90.42 86.3651 88.72C86.3651 87.02 86.7051 85.53 87.3851 84.25C88.0851 82.95 89.0551 81.95 90.2951 81.25C91.5551 80.55 92.9951 80.2 94.6151 80.2C96.1751 80.2 97.5651 80.54 98.7851 81.22C100.005 81.9 100.955 82.86 101.635 84.1C102.315 85.32 102.655 86.73 102.655 88.33ZM99.0851 87.25C99.0651 85.99 98.6151 84.98 97.7351 84.22C96.8551 83.46 95.7651 83.08 94.4651 83.08C93.2851 83.08 92.2751 83.46 91.4351 84.22C90.5951 84.96 90.0951 85.97 89.9351 87.25H99.0851ZM112.981 80.2C114.261 80.2 115.391 80.46 116.371 80.98C117.371 81.48 118.151 82.11 118.711 82.87V80.47H122.161V97.27C122.161 98.79 121.841 100.14 121.201 101.32C120.561 102.52 119.631 103.46 118.411 104.14C117.211 104.82 115.771 105.16 114.091 105.16C111.851 105.16 109.991 104.63 108.511 103.57C107.031 102.53 106.191 101.11 105.991 99.31H109.381C109.641 100.17 110.191 100.86 111.031 101.38C111.891 101.92 112.911 102.19 114.091 102.19C115.471 102.19 116.581 101.77 117.421 100.93C118.281 100.09 118.711 98.87 118.711 97.27V94.51C118.131 95.29 117.341 95.95 116.341 96.49C115.361 97.01 114.241 97.27 112.981 97.27C111.541 97.27 110.221 96.91 109.021 96.19C107.841 95.45 106.901 94.43 106.201 93.13C105.521 91.81 105.181 90.32 105.181 88.66C105.181 87 105.521 85.53 106.201 84.25C106.901 82.97 107.841 81.98 109.021 81.28C110.221 80.56 111.541 80.2 112.981 80.2ZM118.711 88.72C118.711 87.58 118.471 86.59 117.991 85.75C117.531 84.91 116.921 84.27 116.161 83.83C115.401 83.39 114.581 83.17 113.701 83.17C112.821 83.17 112.001 83.39 111.241 83.83C110.481 84.25 109.861 84.88 109.381 85.72C108.921 86.54 108.691 87.52 108.691 88.66C108.691 89.8 108.921 90.8 109.381 91.66C109.861 92.52 110.481 93.18 111.241 93.64C112.021 94.08 112.841 94.3 113.701 94.3C114.581 94.3 115.401 94.08 116.161 93.64C116.921 93.2 117.531 92.56 117.991 91.72C118.471 90.86 118.711 89.86 118.711 88.72ZM128.693 78.28C128.073 78.28 127.553 78.07 127.133 77.65C126.713 77.23 126.503 76.71 126.503 76.09C126.503 75.47 126.713 74.95 127.133 74.53C127.553 74.11 128.073 73.9 128.693 73.9C129.293 73.9 129.803 74.11 130.223 74.53C130.643 74.95 130.853 75.47 130.853 76.09C130.853 76.71 130.643 77.23 130.223 77.65C129.803 78.07 129.293 78.28 128.693 78.28ZM130.373 80.47V97H126.953V80.47H130.373ZM141.163 97.27C139.863 97.27 138.693 97.04 137.653 96.58C136.633 96.1 135.823 95.46 135.223 94.66C134.623 93.84 134.303 92.93 134.263 91.93H137.803C137.863 92.63 138.193 93.22 138.793 93.7C139.413 94.16 140.183 94.39 141.103 94.39C142.063 94.39 142.803 94.21 143.323 93.85C143.863 93.47 144.133 92.99 144.133 92.41C144.133 91.79 143.833 91.33 143.233 91.03C142.653 90.73 141.723 90.4 140.443 90.04C139.203 89.7 138.193 89.37 137.413 89.05C136.633 88.73 135.953 88.24 135.373 87.58C134.813 86.92 134.533 86.05 134.533 84.97C134.533 84.09 134.793 83.29 135.313 82.57C135.833 81.83 136.573 81.25 137.533 80.83C138.513 80.41 139.633 80.2 140.893 80.2C142.773 80.2 144.283 80.68 145.423 81.64C146.583 82.58 147.203 83.87 147.283 85.51H143.863C143.803 84.77 143.503 84.18 142.963 83.74C142.423 83.3 141.693 83.08 140.773 83.08C139.873 83.08 139.183 83.25 138.703 83.59C138.223 83.93 137.983 84.38 137.983 84.94C137.983 85.38 138.143 85.75 138.463 86.05C138.783 86.35 139.173 86.59 139.633 86.77C140.093 86.93 140.773 87.14 141.673 87.4C142.873 87.72 143.853 88.05 144.613 88.39C145.393 88.71 146.063 89.19 146.623 89.83C147.183 90.47 147.473 91.32 147.493 92.38C147.493 93.32 147.233 94.16 146.713 94.9C146.193 95.64 145.453 96.22 144.493 96.64C143.553 97.06 142.443 97.27 141.163 97.27ZM155.478 83.26V92.41C155.478 93.03 155.618 93.48 155.898 93.76C156.198 94.02 156.698 94.15 157.398 94.15H159.498V97H156.798C155.258 97 154.078 96.64 153.258 95.92C152.438 95.2 152.028 94.03 152.028 92.41V83.26H150.078V80.47H152.028V76.36H155.478V80.47H159.498V83.26H155.478ZM166.37 82.87C166.87 82.03 167.53 81.38 168.35 80.92C169.19 80.44 170.18 80.2 171.32 80.2V83.74H170.45C169.11 83.74 168.09 84.08 167.39 84.76C166.71 85.44 166.37 86.62 166.37 88.3V97H162.95V80.47H166.37V82.87ZM173.624 88.66C173.624 87 173.964 85.53 174.644 84.25C175.344 82.97 176.284 81.98 177.464 81.28C178.664 80.56 179.984 80.2 181.424 80.2C182.724 80.2 183.854 80.46 184.814 80.98C185.794 81.48 186.574 82.11 187.154 82.87V80.47H190.604V97H187.154V94.54C186.574 95.32 185.784 95.97 184.784 96.49C183.784 97.01 182.644 97.27 181.364 97.27C179.944 97.27 178.644 96.91 177.464 96.19C176.284 95.45 175.344 94.43 174.644 93.13C173.964 91.81 173.624 90.32 173.624 88.66ZM187.154 88.72C187.154 87.58 186.914 86.59 186.434 85.75C185.974 84.91 185.364 84.27 184.604 83.83C183.844 83.39 183.024 83.17 182.144 83.17C181.264 83.17 180.444 83.39 179.684 83.83C178.924 84.25 178.304 84.88 177.824 85.72C177.364 86.54 177.134 87.52 177.134 88.66C177.134 89.8 177.364 90.8 177.824 91.66C178.304 92.52 178.924 93.18 179.684 93.64C180.464 94.08 181.284 94.3 182.144 94.3C183.024 94.3 183.844 94.08 184.604 93.64C185.364 93.2 185.974 92.56 186.434 91.72C186.914 90.86 187.154 89.86 187.154 88.72ZM199.386 83.26V92.41C199.386 93.03 199.526 93.48 199.806 93.76C200.106 94.02 200.606 94.15 201.306 94.15H203.406V97H200.706C199.166 97 197.986 96.64 197.166 95.92C196.346 95.2 195.936 94.03 195.936 92.41V83.26H193.986V80.47H195.936V76.36H199.386V80.47H203.406V83.26H199.386ZM208.598 78.28C207.978 78.28 207.458 78.07 207.038 77.65C206.618 77.23 206.408 76.71 206.408 76.09C206.408 75.47 206.618 74.95 207.038 74.53C207.458 74.11 207.978 73.9 208.598 73.9C209.198 73.9 209.708 74.11 210.128 74.53C210.548 74.95 210.758 75.47 210.758 76.09C210.758 76.71 210.548 77.23 210.128 77.65C209.708 78.07 209.198 78.28 208.598 78.28ZM210.278 80.47V97H206.858V80.47H210.278ZM222.238 97.27C220.678 97.27 219.268 96.92 218.008 96.22C216.748 95.5 215.758 94.5 215.038 93.22C214.318 91.92 213.958 90.42 213.958 88.72C213.958 87.04 214.328 85.55 215.068 84.25C215.808 82.95 216.818 81.95 218.098 81.25C219.378 80.55 220.808 80.2 222.388 80.2C223.968 80.2 225.398 80.55 226.678 81.25C227.958 81.95 228.968 82.95 229.708 84.25C230.448 85.55 230.818 87.04 230.818 88.72C230.818 90.4 230.438 91.89 229.678 93.19C228.918 94.49 227.878 95.5 226.558 96.22C225.258 96.92 223.818 97.27 222.238 97.27ZM222.238 94.3C223.118 94.3 223.938 94.09 224.698 93.67C225.478 93.25 226.108 92.62 226.588 91.78C227.068 90.94 227.308 89.92 227.308 88.72C227.308 87.52 227.078 86.51 226.618 85.69C226.158 84.85 225.548 84.22 224.788 83.8C224.028 83.38 223.208 83.17 222.328 83.17C221.448 83.17 220.628 83.38 219.868 83.8C219.128 84.22 218.538 84.85 218.098 85.69C217.658 86.51 217.438 87.52 217.438 88.72C217.438 90.5 217.888 91.88 218.788 92.86C219.708 93.82 220.858 94.3 222.238 94.3ZM242.839 80.2C244.139 80.2 245.299 80.47 246.319 81.01C247.359 81.55 248.169 82.35 248.749 83.41C249.329 84.47 249.619 85.75 249.619 87.25V97H246.229V87.76C246.229 86.28 245.859 85.15 245.119 84.37C244.379 83.57 243.369 83.17 242.089 83.17C240.809 83.17 239.789 83.57 239.029 84.37C238.289 85.15 237.919 86.28 237.919 87.76V97H234.499V80.47H237.919V82.36C238.479 81.68 239.189 81.15 240.049 80.77C240.929 80.39 241.859 80.2 242.839 80.2Z" fill="#6E7587"/>
<path d="M353 190.838C353 178.681 348.171 167.022 339.574 158.426C330.978 149.829 319.319 145 307.162 145C295.004 145 283.345 149.829 274.749 158.426C266.153 167.022 261.323 178.681 261.323 190.838C261.323 202.996 266.153 214.655 274.749 223.251C283.345 231.847 295.004 236.677 307.162 236.677C319.319 236.677 330.978 231.847 339.574 223.251C348.171 214.655 353 202.996 353 190.838ZM311.329 195.006V215.875C311.329 216.98 310.89 218.04 310.108 218.821C309.327 219.603 308.267 220.042 307.162 220.042C306.056 220.042 304.996 219.603 304.215 218.821C303.433 218.04 302.994 216.98 302.994 215.875V195.006H282.117C281.012 195.006 279.952 194.567 279.171 193.785C278.389 193.004 277.95 191.944 277.95 190.838C277.95 189.733 278.389 188.673 279.171 187.892C279.952 187.11 281.012 186.671 282.117 186.671H302.994V165.836C302.994 164.73 303.433 163.671 304.215 162.889C304.996 162.108 306.056 161.669 307.162 161.669C308.267 161.669 309.327 162.108 310.108 162.889C310.89 163.671 311.329 164.73 311.329 165.836V186.671H332.131C333.236 186.671 334.296 187.11 335.078 187.892C335.859 188.673 336.298 189.733 336.298 190.838C336.298 191.944 335.859 193.004 335.078 193.785C334.296 194.567 333.236 195.006 332.131 195.006H311.329ZM307.162 245.011C311.462 245.011 315.654 244.511 319.663 243.561V313.735C319.662 314.885 319.343 316.012 318.743 316.993C318.143 317.973 317.283 318.769 316.26 319.293C315.237 319.817 314.088 320.048 312.942 319.962C311.796 319.875 310.695 319.474 309.762 318.803L261.34 283.957L212.901 318.794C211.968 319.466 210.867 319.867 209.721 319.953C208.575 320.04 207.426 319.808 206.403 319.285C205.379 318.761 204.52 317.965 203.92 316.984C203.32 316.004 203.001 314.877 203 313.727V188.755C203 181.571 205.854 174.682 210.933 169.602C216.013 164.522 222.903 161.669 230.086 161.669H261.507C256.274 169.856 253.341 179.3 253.013 189.012C252.686 198.723 254.976 208.343 259.644 216.865C264.312 225.387 271.187 232.496 279.547 237.448C287.907 242.4 297.445 245.012 307.162 245.011Z" fill="#2E2E2E" fill-opacity="0.25"/>
<defs>
<filter id="filter0_d_54_16" x="0" y="0" width="422" height="422" filterUnits="userSpaceOnUse" color-interpolation-filters="sRGB">
<feFlood flood-opacity="0" result="BackgroundImageFix"/>
<feColorMatrix in="SourceAlpha" type="matrix" values="0 0 0 0 0 0 0 0 0 0 0 0 0 0 0 0 0 0 127 0" result="hardAlpha"/>
<feOffset dx="8" dy="4"/>
<feGaussianBlur stdDeviation="18"/>
<feComposite in2="hardAlpha" operator="out"/>
<feColorMatrix type="matrix" values="0 0 0 0 0 0 0 0 0 0 0 0 0 0 0 0 0 0 0.15 0"/>
<feBlend mode="normal" in2="BackgroundImageFix" result="effect1_dropShadow_54_16"/>
<feBlend mode="normal" in="SourceGraphic" in2="effect1_dropShadow_54_16" result="shape"/>
</filter>
<radialGradient id="paint0_radial_54_16" cx="0" cy="0" r="1" gradientUnits="userSpaceOnUse" gradientTransform="translate(67.5 73.5) rotate(48.2705) scale(272.68)">
<stop stop-color="white"/>
<stop offset="1" stop-color="white" stop-opacity="0"/>
</radialGradient>
</defs>
</svg>
