<svg width="410" height="410" viewBox="0 0 410 410" fill="none" xmlns="http://www.w3.org/2000/svg">
<g filter="url(#filter0_d_55_15)">
<rect x="22" y="26" width="350" height="350" rx="30" fill="white"/>
<rect x="22" y="26" width="350" height="350" rx="30" fill="url(#paint0_radial_55_15)" fill-opacity="0.5"/>
</g>
<path d="M73.08 91L68.28 82.66H65.67V91H62.25V70.15H69.45C71.05 70.15 72.4 70.43 73.5 70.99C74.62 71.55 75.45 72.3 75.99 73.24C76.55 74.18 76.83 75.23 76.83 76.39C76.83 77.75 76.43 78.99 75.63 80.11C74.85 81.21 73.64 81.96 72 82.36L77.16 91H73.08ZM65.67 79.93H69.45C70.73 79.93 71.69 79.61 72.33 78.97C72.99 78.33 73.32 77.47 73.32 76.39C73.32 75.31 73 74.47 72.36 73.87C71.72 73.25 70.75 72.94 69.45 72.94H65.67V79.93ZM96.6551 82.33C96.6551 82.95 96.6151 83.51 96.5351 84.01H83.9051C84.0051 85.33 84.4951 86.39 85.3751 87.19C86.2551 87.99 87.3351 88.39 88.6151 88.39C90.4551 88.39 91.7551 87.62 92.5151 86.08H96.2051C95.7051 87.6 94.7951 88.85 93.4751 89.83C92.1751 90.79 90.5551 91.27 88.6151 91.27C87.0351 91.27 85.6151 90.92 84.3551 90.22C83.1151 89.5 82.1351 88.5 81.4151 87.22C80.7151 85.92 80.3651 84.42 80.3651 82.72C80.3651 81.02 80.7051 79.53 81.3851 78.25C82.0851 76.95 83.0551 75.95 84.2951 75.25C85.5551 74.55 86.9951 74.2 88.6151 74.2C90.1751 74.2 91.5651 74.54 92.7851 75.22C94.0051 75.9 94.9551 76.86 95.6351 78.1C96.3151 79.32 96.6551 80.73 96.6551 82.33ZM93.0851 81.25C93.0651 79.99 92.6151 78.98 91.7351 78.22C90.8551 77.46 89.7651 77.08 88.4651 77.08C87.2851 77.08 86.2751 77.46 85.4351 78.22C84.5951 78.96 84.0951 79.97 83.9351 81.25H93.0851ZM99.1807 82.66C99.1807 81 99.5207 79.53 100.201 78.25C100.901 76.97 101.841 75.98 103.021 75.28C104.221 74.56 105.541 74.2 106.981 74.2C108.281 74.2 109.411 74.46 110.371 74.98C111.351 75.48 112.131 76.11 112.711 76.87V74.47H116.161V91H112.711V88.54C112.131 89.32 111.341 89.97 110.341 90.49C109.341 91.01 108.201 91.27 106.921 91.27C105.501 91.27 104.201 90.91 103.021 90.19C101.841 89.45 100.901 88.43 100.201 87.13C99.5207 85.81 99.1807 84.32 99.1807 82.66ZM112.711 82.72C112.711 81.58 112.471 80.59 111.991 79.75C111.531 78.91 110.921 78.27 110.161 77.83C109.401 77.39 108.581 77.17 107.701 77.17C106.821 77.17 106.001 77.39 105.241 77.83C104.481 78.25 103.861 78.88 103.381 79.72C102.921 80.54 102.691 81.52 102.691 82.66C102.691 83.8 102.921 84.8 103.381 85.66C103.861 86.52 104.481 87.18 105.241 87.64C106.021 88.08 106.841 88.3 107.701 88.3C108.581 88.3 109.401 88.08 110.161 87.64C110.921 87.2 111.531 86.56 111.991 85.72C112.471 84.86 112.711 83.86 112.711 82.72ZM124.373 68.8V91H120.953V68.8H124.373ZM133.153 77.26V86.41C133.153 87.03 133.293 87.48 133.573 87.76C133.873 88.02 134.373 88.15 135.073 88.15H137.173V91H134.473C132.933 91 131.753 90.64 130.933 89.92C130.113 89.2 129.703 88.03 129.703 86.41V77.26H127.753V74.47H129.703V70.36H133.153V74.47H137.173V77.26H133.153ZM142.365 72.28C141.745 72.28 141.225 72.07 140.805 71.65C140.385 71.23 140.175 70.71 140.175 70.09C140.175 69.47 140.385 68.95 140.805 68.53C141.225 68.11 141.745 67.9 142.365 67.9C142.965 67.9 143.475 68.11 143.895 68.53C144.315 68.95 144.525 69.47 144.525 70.09C144.525 70.71 144.315 71.23 143.895 71.65C143.475 72.07 142.965 72.28 142.365 72.28ZM144.045 74.47V91H140.625V74.47H144.045ZM168.845 74.2C170.145 74.2 171.305 74.47 172.325 75.01C173.365 75.55 174.175 76.35 174.755 77.41C175.355 78.47 175.655 79.75 175.655 81.25V91H172.265V81.76C172.265 80.28 171.895 79.15 171.155 78.37C170.415 77.57 169.405 77.17 168.125 77.17C166.845 77.17 165.825 77.57 165.065 78.37C164.325 79.15 163.955 80.28 163.955 81.76V91H160.565V81.76C160.565 80.28 160.195 79.15 159.455 78.37C158.715 77.57 157.705 77.17 156.425 77.17C155.145 77.17 154.125 77.57 153.365 78.37C152.625 79.15 152.255 80.28 152.255 81.76V91H148.835V74.47H152.255V76.36C152.815 75.68 153.525 75.15 154.385 74.77C155.245 74.39 156.165 74.2 157.145 74.2C158.465 74.2 159.645 74.48 160.685 75.04C161.725 75.6 162.525 76.41 163.085 77.47C163.585 76.47 164.365 75.68 165.425 75.1C166.485 74.5 167.625 74.2 168.845 74.2ZM195.457 82.33C195.457 82.95 195.417 83.51 195.337 84.01H182.707C182.807 85.33 183.297 86.39 184.177 87.19C185.057 87.99 186.137 88.39 187.417 88.39C189.257 88.39 190.557 87.62 191.317 86.08H195.007C194.507 87.6 193.597 88.85 192.277 89.83C190.977 90.79 189.357 91.27 187.417 91.27C185.837 91.27 184.417 90.92 183.157 90.22C181.917 89.5 180.937 88.5 180.217 87.22C179.517 85.92 179.167 84.42 179.167 82.72C179.167 81.02 179.507 79.53 180.187 78.25C180.887 76.95 181.857 75.95 183.097 75.25C184.357 74.55 185.797 74.2 187.417 74.2C188.977 74.2 190.367 74.54 191.587 75.22C192.807 75.9 193.757 76.86 194.437 78.1C195.117 79.32 195.457 80.73 195.457 82.33ZM191.887 81.25C191.867 79.99 191.417 78.98 190.537 78.22C189.657 77.46 188.567 77.08 187.267 77.08C186.087 77.08 185.077 77.46 184.237 78.22C183.397 78.96 182.897 79.97 182.737 81.25H191.887ZM220.686 70.15V72.94H215.136V91H211.716V72.94H206.136V70.15H220.686ZM227.869 76.87C228.369 76.03 229.029 75.38 229.849 74.92C230.689 74.44 231.679 74.2 232.819 74.2V77.74H231.949C230.609 77.74 229.589 78.08 228.889 78.76C228.209 79.44 227.869 80.62 227.869 82.3V91H224.449V74.47H227.869V76.87ZM235.123 82.66C235.123 81 235.463 79.53 236.143 78.25C236.843 76.97 237.783 75.98 238.963 75.28C240.163 74.56 241.483 74.2 242.923 74.2C244.223 74.2 245.353 74.46 246.313 74.98C247.293 75.48 248.073 76.11 248.653 76.87V74.47H252.103V91H248.653V88.54C248.073 89.32 247.283 89.97 246.283 90.49C245.283 91.01 244.143 91.27 242.863 91.27C241.443 91.27 240.143 90.91 238.963 90.19C237.783 89.45 236.843 88.43 236.143 87.13C235.463 85.81 235.123 84.32 235.123 82.66ZM248.653 82.72C248.653 81.58 248.413 80.59 247.933 79.75C247.473 78.91 246.863 78.27 246.103 77.83C245.343 77.39 244.523 77.17 243.643 77.17C242.763 77.17 241.943 77.39 241.183 77.83C240.423 78.25 239.803 78.88 239.323 79.72C238.863 80.54 238.633 81.52 238.633 82.66C238.633 83.8 238.863 84.8 239.323 85.66C239.803 86.52 240.423 87.18 241.183 87.64C241.963 88.08 242.783 88.3 243.643 88.3C244.523 88.3 245.343 88.08 246.103 87.64C246.863 87.2 247.473 86.56 247.933 85.72C248.413 84.86 248.653 83.86 248.653 82.72ZM255.755 82.72C255.755 81.02 256.095 79.53 256.775 78.25C257.475 76.95 258.435 75.95 259.655 75.25C260.875 74.55 262.275 74.2 263.855 74.2C265.855 74.2 267.505 74.68 268.805 75.64C270.125 76.58 271.015 77.93 271.475 79.69H267.785C267.485 78.87 267.005 78.23 266.345 77.77C265.685 77.31 264.855 77.08 263.855 77.08C262.455 77.08 261.335 77.58 260.495 78.58C259.675 79.56 259.265 80.94 259.265 82.72C259.265 84.5 259.675 85.89 260.495 86.89C261.335 87.89 262.455 88.39 263.855 88.39C265.835 88.39 267.145 87.52 267.785 85.78H271.475C270.995 87.46 270.095 88.8 268.775 89.8C267.455 90.78 265.815 91.27 263.855 91.27C262.275 91.27 260.875 90.92 259.655 90.22C258.435 89.5 257.475 88.5 256.775 87.22C256.095 85.92 255.755 84.42 255.755 82.72ZM281.723 82.75L289.343 91H284.723L278.603 83.89V91H275.183V68.8H278.603V81.7L284.603 74.47H289.343L281.723 82.75ZM293.835 72.28C293.215 72.28 292.695 72.07 292.275 71.65C291.855 71.23 291.645 70.71 291.645 70.09C291.645 69.47 291.855 68.95 292.275 68.53C292.695 68.11 293.215 67.9 293.835 67.9C294.435 67.9 294.945 68.11 295.365 68.53C295.785 68.95 295.995 69.47 295.995 70.09C295.995 70.71 295.785 71.23 295.365 71.65C294.945 72.07 294.435 72.28 293.835 72.28ZM295.515 74.47V91H292.095V74.47H295.515ZM308.645 74.2C309.945 74.2 311.105 74.47 312.125 75.01C313.165 75.55 313.975 76.35 314.555 77.41C315.135 78.47 315.425 79.75 315.425 81.25V91H312.035V81.76C312.035 80.28 311.665 79.15 310.925 78.37C310.185 77.57 309.175 77.17 307.895 77.17C306.615 77.17 305.595 77.57 304.835 78.37C304.095 79.15 303.725 80.28 303.725 81.76V91H300.305V74.47H303.725V76.36C304.285 75.68 304.995 75.15 305.855 74.77C306.735 74.39 307.665 74.2 308.645 74.2ZM326.747 74.2C328.027 74.2 329.157 74.46 330.137 74.98C331.137 75.48 331.917 76.11 332.477 76.87V74.47H335.927V91.27C335.927 92.79 335.607 94.14 334.967 95.32C334.327 96.52 333.397 97.46 332.177 98.14C330.977 98.82 329.537 99.16 327.857 99.16C325.617 99.16 323.757 98.63 322.277 97.57C320.797 96.53 319.957 95.11 319.757 93.31H323.147C323.407 94.17 323.957 94.86 324.797 95.38C325.657 95.92 326.677 96.19 327.857 96.19C329.237 96.19 330.347 95.77 331.187 94.93C332.047 94.09 332.477 92.87 332.477 91.27V88.51C331.897 89.29 331.107 89.95 330.107 90.49C329.127 91.01 328.007 91.27 326.747 91.27C325.307 91.27 323.987 90.91 322.787 90.19C321.607 89.45 320.667 88.43 319.967 87.13C319.287 85.81 318.947 84.32 318.947 82.66C318.947 81 319.287 79.53 319.967 78.25C320.667 76.97 321.607 75.98 322.787 75.28C323.987 74.56 325.307 74.2 326.747 74.2ZM332.477 82.72C332.477 81.58 332.237 80.59 331.757 79.75C331.297 78.91 330.687 78.27 329.927 77.83C329.167 77.39 328.347 77.17 327.467 77.17C326.587 77.17 325.767 77.39 325.007 77.83C324.247 78.25 323.627 78.88 323.147 79.72C322.687 80.54 322.457 81.52 322.457 82.66C322.457 83.8 322.687 84.8 323.147 85.66C323.627 86.52 324.247 87.18 325.007 87.64C325.787 88.08 326.607 88.3 327.467 88.3C328.347 88.3 329.167 88.08 329.927 87.64C330.687 87.2 331.297 86.56 331.757 85.72C332.237 84.86 332.477 83.86 332.477 82.72Z" fill="#6E7587"/>
<path d="M313.333 156H196.667C187.5 156 180 163.5 180 172.667V289.333C180 298.5 187.5 306 196.667 306H313.333C322.5 306 330 298.5 330 289.333V172.667C330 163.5 322.5 156 313.333 156ZM230 272.667H213.333V214.333H230V272.667ZM263.333 272.667H246.667V189.333H263.333V272.667ZM296.667 272.667H280V239.333H296.667V272.667Z" fill="#C5C5C5"/>
<defs>
<filter id="filter0_d_55_15" x="0" y="0" width="410" height="410" filterUnits="userSpaceOnUse" color-interpolation-filters="sRGB">
<feFlood flood-opacity="0" result="BackgroundImageFix"/>
<feColorMatrix in="SourceAlpha" type="matrix" values="0 0 0 0 0 0 0 0 0 0 0 0 0 0 0 0 0 0 127 0" result="hardAlpha"/>
<feOffset dx="8" dy="4"/>
<feGaussianBlur stdDeviation="15"/>
<feComposite in2="hardAlpha" operator="out"/>
<feColorMatrix type="matrix" values="0 0 0 0 0 0 0 0 0 0 0 0 0 0 0 0 0 0 0.15 0"/>
<feBlend mode="normal" in2="BackgroundImageFix" result="effect1_dropShadow_55_15"/>
<feBlend mode="normal" in="SourceGraphic" in2="effect1_dropShadow_55_15" result="shape"/>
</filter>
<radialGradient id="paint0_radial_55_15" cx="0" cy="0" r="1" gradientUnits="userSpaceOnUse" gradientTransform="translate(61.5 67.5) rotate(48.2705) scale(272.68)">
<stop stop-color="white"/>
<stop offset="1" stop-color="white" stop-opacity="0"/>
</radialGradient>
</defs>
</svg>
